<svg xmlns="http://www.w3.org/2000/svg" xmlns:xlink="http://www.w3.org/1999/xlink" viewBox="0,0,256,256" width="48px" height="48px" fill-rule="nonzero"><g fill="#295fa3" fill-rule="nonzero" stroke="none" stroke-width="1" stroke-linecap="butt" stroke-linejoin="miter" stroke-miterlimit="10" stroke-dasharray="" stroke-dashoffset="0" font-family="none" font-weight="none" font-size="none" text-anchor="none" style="mix-blend-mode: normal"><g transform="scale(10.66667,10.66667)"><path d="M11.5,2c-1.93,0 -3.5,1.57 -3.5,3.5c0,1.93 1.57,3.5 3.5,3.5c1.93,0 3.5,-1.57 3.5,-3.5c0,-1.93 -1.57,-3.5 -3.5,-3.5zM11.5,4c0.827,0 1.5,0.673 1.5,1.5c0,0.827 -0.673,1.5 -1.5,1.5c-0.827,0 -1.5,-0.673 -1.5,-1.5c0,-0.827 0.673,-1.5 1.5,-1.5zM7,10c-1.654,0 -3,1.346 -3,3v4h3.23047c1.181,3.877 4.26653,6 8.76953,6c0.96,0 2.36127,-0.06247 3.44727,-0.60547l2.05078,-1.02539l-2.14648,-0.80664c-2.497,-0.937 -3.1313,-2.4805 -3.2793,-3.5625h2.92773v-4c0,-1.654 -1.346,-3 -3,-3zM7,12h9c0.552,0 1,0.449 1,1v2h-2.92969l-0.0332,0.96484c-0.086,2.38 0.85461,3.9712 2.09961,5.0332c-0.045,0.001 -0.09072,0.00195 -0.13672,0.00195c-3.875,0 -6.23939,-1.75766 -7.02539,-5.22266l-0.17578,-0.77734h-2.79883v-2c0,-0.551 0.449,-1 1,-1z"></path></g></g></svg>